<svg id="Layer_3" enable-background="new 0 0 64 64" height="512" viewBox="0 0 64 64" width="512" xmlns="http://www.w3.org/2000/svg"><g><path d="m61.293 62.707 1.414-1.414-7.707-7.707v-1.586h2v-2h-2v-4h1v2h2v-6h-2v2h-1v-7h-2v7h-2v2h2v4h-2v2h2v1.586l-7.707 7.707 1.414 1.414 1.707-1.707h4.586v2h2v-2h4.586zm-10.879-3.707 2.586-2.586v2.586zm4.586 0v-2.586l2.586 2.586z"/><path d="m9 3h46v2h-46z"/><path d="m16 39.586v-11.172l-3 3v.586 4.586z"/><path d="m53 33h2v2h-2z"/><path d="m9 33h2v2h-2z"/><path d="m51 36.586v-5.172l-3-3v11.172z"/><path d="m44 27h2v14h-2z"/><path d="m47.707 25.293 3.293 3.293v-21.586h-38v21.586l3.293-3.293c.181-.181.431-.293.707-.293h4c.552 0 1 .448 1 1v11h20v-11c0-.552.448-1 1-1h4c.276 0 .526.112.707.293z"/><path d="m18 27h2v14h-2z"/><path d="m11 52h2v-2h-2v-4h2v-2h-2v-7h-2v7h-1v-2h-2v6h2v-2h1v4h-2v2h2v1.586l-7.707 7.707 1.414 1.414 1.707-1.707h4.586v2h2v-2h4.586l1.707 1.707 1.414-1.414-7.707-7.707zm-4.586 7 2.586-2.586v2.586zm7.172 0h-2.586v-2.586z"/></g></svg>